<mxfile host="app.diagrams.net" modified="2022-02-28T18:55:55.252Z" agent="5.0 (Windows NT 10.0; Win64; x64) AppleWebKit/537.36 (KHTML, like Gecko) Chrome/98.0.4758.82 Safari/537.36" etag="O7189F6GQrgny4LpWr8h" version="16.5.6" type="github">
  <diagram id="0sZCb5amzqQhkTw0xnJ0" name="Page-1">
    <mxGraphModel dx="4287" dy="2992" grid="1" gridSize="10" guides="1" tooltips="1" connect="1" arrows="1" fold="1" page="1" pageScale="1" pageWidth="827" pageHeight="1169" math="0" shadow="0">
      <root>
        <mxCell id="0" />
        <mxCell id="1" parent="0" />
        <mxCell id="THtEK28CrpyiMlygFGQV-1" value="" style="rounded=0;whiteSpace=wrap;html=1;fillColor=#D4FCFF;" vertex="1" parent="1">
          <mxGeometry x="-420" y="-580" width="2840" height="1782" as="geometry" />
        </mxCell>
        <mxCell id="THtEK28CrpyiMlygFGQV-2" value="" style="rounded=0;whiteSpace=wrap;html=1;fillColor=#95F5F5;strokeColor=#666666;fontColor=#333333;" vertex="1" parent="1">
          <mxGeometry x="480" y="-240" width="568" height="1277" as="geometry" />
        </mxCell>
        <mxCell id="THtEK28CrpyiMlygFGQV-3" value="" style="rounded=0;whiteSpace=wrap;html=1;fillColor=#dae8fc;strokeColor=#6c8ebf;" vertex="1" parent="1">
          <mxGeometry x="1540" y="-240" width="370" height="1277" as="geometry" />
        </mxCell>
        <mxCell id="THtEK28CrpyiMlygFGQV-4" value="" style="rounded=0;whiteSpace=wrap;html=1;fillColor=#F5A2E7;strokeColor=#666666;fontColor=#333333;" vertex="1" parent="1">
          <mxGeometry x="90" y="-240" width="390" height="1277" as="geometry" />
        </mxCell>
        <mxCell id="THtEK28CrpyiMlygFGQV-5" value="" style="rounded=0;whiteSpace=wrap;html=1;fillColor=#dae8fc;strokeColor=#000000;strokeWidth=6;gradientColor=#ffffff;" vertex="1" parent="1">
          <mxGeometry x="850" y="-240" width="515" height="1276" as="geometry" />
        </mxCell>
        <mxCell id="THtEK28CrpyiMlygFGQV-6" value="" style="rounded=0;whiteSpace=wrap;html=1;fillColor=#d5e8d4;strokeColor=#82b366;" vertex="1" parent="1">
          <mxGeometry x="1367" y="-240" width="171" height="1277" as="geometry" />
        </mxCell>
        <mxCell id="THtEK28CrpyiMlygFGQV-7" value="" style="endArrow=classic;html=1;rounded=0;fontColor=#FF142C;labelBackgroundColor=#FF142C;strokeColor=#FF3A24;strokeWidth=2;" edge="1" parent="1" source="THtEK28CrpyiMlygFGQV-44" target="THtEK28CrpyiMlygFGQV-9">
          <mxGeometry width="50" height="50" relative="1" as="geometry">
            <mxPoint x="1033.16" y="949.4699999999999" as="sourcePoint" />
            <mxPoint x="1113.1599999999999" y="942.1972727272727" as="targetPoint" />
          </mxGeometry>
        </mxCell>
        <mxCell id="THtEK28CrpyiMlygFGQV-8" value="&lt;font color=&quot;#000000&quot; style=&quot;font-size: 14px&quot;&gt;&lt;b&gt;Client&lt;/b&gt;&lt;/font&gt;" style="image;html=1;image=img/lib/clip_art/computers/Database_128x128.png;fontColor=#FF142C;" vertex="1" parent="1">
          <mxGeometry x="1439.9999999999998" y="399.99999999999994" width="80" height="80" as="geometry" />
        </mxCell>
        <mxCell id="THtEK28CrpyiMlygFGQV-9" value="&lt;font color=&quot;#000000&quot; style=&quot;font-size: 14px&quot;&gt;&lt;b&gt;Product&lt;/b&gt;&lt;/font&gt;" style="image;html=1;image=img/lib/clip_art/computers/Database_128x128.png;fontColor=#FF142C;" vertex="1" parent="1">
          <mxGeometry x="1440" y="249.47" width="80" height="80" as="geometry" />
        </mxCell>
        <mxCell id="THtEK28CrpyiMlygFGQV-10" value="&lt;font color=&quot;#000000&quot; size=&quot;1&quot;&gt;&lt;b style=&quot;font-size: 14px&quot;&gt;Movements&lt;/b&gt;&lt;/font&gt;" style="image;html=1;image=img/lib/clip_art/computers/Database_128x128.png;fontColor=#FF142C;" vertex="1" parent="1">
          <mxGeometry x="1429.9999999999998" y="709" width="80" height="80" as="geometry" />
        </mxCell>
        <mxCell id="THtEK28CrpyiMlygFGQV-11" style="edgeStyle=orthogonalEdgeStyle;rounded=0;orthogonalLoop=1;jettySize=auto;html=1;fontSize=14;fontColor=#000000;" edge="1" parent="1" source="THtEK28CrpyiMlygFGQV-45" target="THtEK28CrpyiMlygFGQV-14">
          <mxGeometry relative="1" as="geometry" />
        </mxCell>
        <mxCell id="THtEK28CrpyiMlygFGQV-13" style="edgeStyle=orthogonalEdgeStyle;rounded=0;orthogonalLoop=1;jettySize=auto;html=1;entryX=0.516;entryY=1.062;entryDx=0;entryDy=0;entryPerimeter=0;fontSize=14;fontColor=#000000;" edge="1" parent="1" source="THtEK28CrpyiMlygFGQV-14" target="THtEK28CrpyiMlygFGQV-39">
          <mxGeometry relative="1" as="geometry" />
        </mxCell>
        <mxCell id="THtEK28CrpyiMlygFGQV-14" value="&lt;font style=&quot;font-size: 14px&quot;&gt;&lt;b&gt;Asignature&lt;/b&gt;&lt;/font&gt;" style="aspect=fixed;html=1;points=[];align=center;image;fontSize=12;image=img/lib/azure2/ai_machine_learning/Cognitive_Services.svg;fontColor=#000000;" vertex="1" parent="1">
          <mxGeometry x="1171.5900000000001" y="537.39" width="109.17" height="77.06" as="geometry" />
        </mxCell>
        <mxCell id="THtEK28CrpyiMlygFGQV-15" value="" style="endArrow=classic;html=1;rounded=0;fontColor=#FF142C;labelBackgroundColor=#FF142C;strokeColor=#FF3A24;strokeWidth=2;" edge="1" parent="1" source="THtEK28CrpyiMlygFGQV-39" target="THtEK28CrpyiMlygFGQV-8">
          <mxGeometry width="50" height="50" relative="1" as="geometry">
            <mxPoint x="1359.9999999999995" y="498.5399999999999" as="sourcePoint" />
            <mxPoint x="1359.9999999999995" y="591.4799999999998" as="targetPoint" />
          </mxGeometry>
        </mxCell>
        <mxCell id="THtEK28CrpyiMlygFGQV-16" value="" style="endArrow=classic;html=1;rounded=0;fontColor=#FF142C;labelBackgroundColor=#FF142C;strokeColor=#FF3A24;strokeWidth=2;" edge="1" parent="1" source="THtEK28CrpyiMlygFGQV-14" target="THtEK28CrpyiMlygFGQV-12">
          <mxGeometry width="50" height="50" relative="1" as="geometry">
            <mxPoint x="1450.5699999999997" y="947.9999999999999" as="sourcePoint" />
            <mxPoint x="1450.5699999999997" y="1040.9399999999996" as="targetPoint" />
          </mxGeometry>
        </mxCell>
        <mxCell id="THtEK28CrpyiMlygFGQV-17" value="" style="endArrow=classic;html=1;rounded=0;fontColor=#FF142C;labelBackgroundColor=#FF142C;strokeColor=#FF3A24;strokeWidth=2;" edge="1" parent="1" source="THtEK28CrpyiMlygFGQV-45" target="THtEK28CrpyiMlygFGQV-10">
          <mxGeometry width="50" height="50" relative="1" as="geometry">
            <mxPoint x="1662.1600000000003" y="947.9999999999999" as="sourcePoint" />
            <mxPoint x="1662.1600000000003" y="1040.9399999999996" as="targetPoint" />
          </mxGeometry>
        </mxCell>
        <mxCell id="THtEK28CrpyiMlygFGQV-18" style="edgeStyle=orthogonalEdgeStyle;rounded=0;orthogonalLoop=1;jettySize=auto;html=1;entryX=0.24;entryY=0.76;entryDx=0;entryDy=0;entryPerimeter=0;fontSize=20;fontColor=#000000;strokeColor=#9933FF;strokeWidth=4;" edge="1" parent="1" source="THtEK28CrpyiMlygFGQV-21" target="THtEK28CrpyiMlygFGQV-42">
          <mxGeometry relative="1" as="geometry">
            <Array as="points">
              <mxPoint x="560" y="1030" />
              <mxPoint x="1184" y="1030" />
            </Array>
          </mxGeometry>
        </mxCell>
        <mxCell id="THtEK28CrpyiMlygFGQV-19" style="edgeStyle=orthogonalEdgeStyle;rounded=0;orthogonalLoop=1;jettySize=auto;html=1;entryX=0.5;entryY=1;entryDx=0;entryDy=0;entryPerimeter=0;fontSize=20;fontColor=#000000;strokeColor=#9933FF;strokeWidth=4;" edge="1" parent="1" source="THtEK28CrpyiMlygFGQV-21" target="THtEK28CrpyiMlygFGQV-28">
          <mxGeometry relative="1" as="geometry">
            <Array as="points">
              <mxPoint x="560" y="1027" />
              <mxPoint x="1860" y="1027" />
              <mxPoint x="1860" y="498" />
            </Array>
          </mxGeometry>
        </mxCell>
        <mxCell id="THtEK28CrpyiMlygFGQV-20" style="edgeStyle=orthogonalEdgeStyle;rounded=0;orthogonalLoop=1;jettySize=auto;html=1;fontSize=20;fontColor=#000000;strokeColor=#9933FF;strokeWidth=4;" edge="1" parent="1" source="THtEK28CrpyiMlygFGQV-21" target="THtEK28CrpyiMlygFGQV-46">
          <mxGeometry relative="1" as="geometry">
            <Array as="points">
              <mxPoint x="240" y="1018" />
            </Array>
          </mxGeometry>
        </mxCell>
        <mxCell id="THtEK28CrpyiMlygFGQV-21" value="GitHub" style="dashed=0;outlineConnect=0;html=1;align=center;labelPosition=center;verticalLabelPosition=bottom;verticalAlign=top;shape=mxgraph.weblogos.github;fontSize=14;fontStyle=1;labelBackgroundColor=default;" vertex="1" parent="1">
          <mxGeometry x="150" y="879.5" width="200" height="180.5" as="geometry" />
        </mxCell>
        <mxCell id="THtEK28CrpyiMlygFGQV-24" value="Microservicios" style="ellipse;whiteSpace=wrap;html=1;align=center;newEdgeStyle={&quot;edgeStyle&quot;:&quot;entityRelationEdgeStyle&quot;,&quot;startArrow&quot;:&quot;none&quot;,&quot;endArrow&quot;:&quot;none&quot;,&quot;segment&quot;:10,&quot;curved&quot;:1};treeFolding=1;treeMoving=1;fontSize=14;fillColor=#FFFFFF;fontStyle=1" vertex="1" collapsed="1" parent="1">
          <mxGeometry x="900" y="578" width="110" height="50" as="geometry" />
        </mxCell>
        <mxCell id="THtEK28CrpyiMlygFGQV-25" style="edgeStyle=orthogonalEdgeStyle;rounded=0;orthogonalLoop=1;jettySize=auto;html=1;" edge="1" parent="1" source="THtEK28CrpyiMlygFGQV-28" target="THtEK28CrpyiMlygFGQV-43">
          <mxGeometry relative="1" as="geometry">
            <Array as="points">
              <mxPoint x="1773" y="403.54" />
            </Array>
          </mxGeometry>
        </mxCell>
        <mxCell id="THtEK28CrpyiMlygFGQV-26" style="edgeStyle=orthogonalEdgeStyle;rounded=0;orthogonalLoop=1;jettySize=auto;html=1;exitX=0.5;exitY=1;exitDx=0;exitDy=0;exitPerimeter=0;entryX=1.02;entryY=0.706;entryDx=0;entryDy=0;entryPerimeter=0;" edge="1" parent="1" source="THtEK28CrpyiMlygFGQV-28" target="THtEK28CrpyiMlygFGQV-37">
          <mxGeometry relative="1" as="geometry">
            <Array as="points">
              <mxPoint x="1773" y="617.54" />
            </Array>
          </mxGeometry>
        </mxCell>
        <mxCell id="THtEK28CrpyiMlygFGQV-27" style="edgeStyle=orthogonalEdgeStyle;rounded=0;orthogonalLoop=1;jettySize=auto;html=1;fontSize=14;fontColor=#000000;strokeColor=#000000;strokeWidth=1;" edge="1" parent="1" source="THtEK28CrpyiMlygFGQV-28" target="THtEK28CrpyiMlygFGQV-59">
          <mxGeometry relative="1" as="geometry">
            <Array as="points">
              <mxPoint x="1773" y="677" />
              <mxPoint x="1730" y="677" />
            </Array>
          </mxGeometry>
        </mxCell>
        <mxCell id="THtEK28CrpyiMlygFGQV-28" value="&lt;font style=&quot;font-size: 14px&quot;&gt;&lt;b&gt;RepositoryGit&lt;/b&gt;&lt;/font&gt;" style="verticalLabelPosition=bottom;html=1;verticalAlign=top;align=center;strokeColor=none;fillColor=#00BEF2;shape=mxgraph.azure.git_repository;labelBackgroundColor=default;" vertex="1" parent="1">
          <mxGeometry x="1748" y="447.5400000000001" width="50" height="50" as="geometry" />
        </mxCell>
        <mxCell id="THtEK28CrpyiMlygFGQV-29" value="" style="shape=image;verticalLabelPosition=bottom;labelBackgroundColor=default;verticalAlign=top;aspect=fixed;imageAspect=0;image=https://assets-global.website-files.com/5f1c75e63b2f950eb473d3e4/603c5eb831820c3ce6a8f057_603a1586fa052d17fc2a6929_MongoDBAtlas.png;" vertex="1" parent="1">
          <mxGeometry x="1380" y="-210" width="90" height="90" as="geometry" />
        </mxCell>
        <mxCell id="THtEK28CrpyiMlygFGQV-30" style="edgeStyle=orthogonalEdgeStyle;rounded=0;orthogonalLoop=1;jettySize=auto;html=1;fontSize=14;fontColor=#000000;strokeColor=#9933FF;strokeWidth=4;" edge="1" parent="1" source="THtEK28CrpyiMlygFGQV-37" target="THtEK28CrpyiMlygFGQV-14">
          <mxGeometry relative="1" as="geometry">
            <Array as="points">
              <mxPoint x="1617" y="690" />
              <mxPoint x="1320" y="690" />
              <mxPoint x="1320" y="653" />
              <mxPoint x="1226" y="653" />
            </Array>
          </mxGeometry>
        </mxCell>
        <mxCell id="THtEK28CrpyiMlygFGQV-31" style="edgeStyle=orthogonalEdgeStyle;rounded=0;orthogonalLoop=1;jettySize=auto;html=1;entryX=0.898;entryY=0.895;entryDx=0;entryDy=0;entryPerimeter=0;fontSize=14;fontColor=#000000;strokeColor=#9933FF;strokeWidth=4;" edge="1" parent="1" source="THtEK28CrpyiMlygFGQV-37" target="THtEK28CrpyiMlygFGQV-39">
          <mxGeometry relative="1" as="geometry">
            <Array as="points">
              <mxPoint x="1617" y="690" />
              <mxPoint x="1320" y="690" />
              <mxPoint x="1320" y="453" />
            </Array>
          </mxGeometry>
        </mxCell>
        <mxCell id="THtEK28CrpyiMlygFGQV-32" style="edgeStyle=orthogonalEdgeStyle;rounded=0;orthogonalLoop=1;jettySize=auto;html=1;entryX=0.942;entryY=0.995;entryDx=0;entryDy=0;entryPerimeter=0;fontSize=14;fontColor=#000000;strokeColor=#9933FF;strokeWidth=4;" edge="1" parent="1" source="THtEK28CrpyiMlygFGQV-37" target="THtEK28CrpyiMlygFGQV-44">
          <mxGeometry relative="1" as="geometry">
            <Array as="points">
              <mxPoint x="1617" y="690" />
              <mxPoint x="1320" y="690" />
              <mxPoint x="1320" y="297" />
            </Array>
          </mxGeometry>
        </mxCell>
        <mxCell id="THtEK28CrpyiMlygFGQV-33" style="edgeStyle=orthogonalEdgeStyle;rounded=0;orthogonalLoop=1;jettySize=auto;html=1;entryX=1.012;entryY=0.486;entryDx=0;entryDy=0;entryPerimeter=0;fontSize=14;fontColor=#000000;strokeColor=#9933FF;strokeWidth=4;exitX=0.545;exitY=1.037;exitDx=0;exitDy=0;exitPerimeter=0;" edge="1" parent="1" source="THtEK28CrpyiMlygFGQV-37" target="THtEK28CrpyiMlygFGQV-45">
          <mxGeometry relative="1" as="geometry">
            <Array as="points">
              <mxPoint x="1623" y="690" />
              <mxPoint x="1261" y="690" />
              <mxPoint x="1261" y="732" />
            </Array>
          </mxGeometry>
        </mxCell>
        <mxCell id="THtEK28CrpyiMlygFGQV-34" style="edgeStyle=orthogonalEdgeStyle;rounded=0;orthogonalLoop=1;jettySize=auto;html=1;fontSize=14;fontColor=#000000;strokeColor=#9933FF;strokeWidth=4;" edge="1" parent="1" source="THtEK28CrpyiMlygFGQV-37" target="THtEK28CrpyiMlygFGQV-43">
          <mxGeometry relative="1" as="geometry" />
        </mxCell>
        <mxCell id="THtEK28CrpyiMlygFGQV-35" style="edgeStyle=orthogonalEdgeStyle;rounded=0;orthogonalLoop=1;jettySize=auto;html=1;fontSize=14;fontColor=#000000;strokeColor=#9933FF;strokeWidth=3;" edge="1" parent="1" source="THtEK28CrpyiMlygFGQV-37" target="THtEK28CrpyiMlygFGQV-61">
          <mxGeometry relative="1" as="geometry">
            <Array as="points">
              <mxPoint x="1617" y="690" />
              <mxPoint x="1320" y="690" />
              <mxPoint x="1320" y="139" />
            </Array>
          </mxGeometry>
        </mxCell>
        <mxCell id="THtEK28CrpyiMlygFGQV-37" value="&lt;font style=&quot;font-size: 14px&quot;&gt;&lt;b&gt;Eureka Service&lt;/b&gt;&lt;/font&gt;" style="aspect=fixed;html=1;points=[];align=center;image;fontSize=12;image=img/lib/azure2/app_services/API_Management_Services.svg;fontColor=#000000;" vertex="1" parent="1">
          <mxGeometry x="1556" y="537.39" width="122.5" height="113.07" as="geometry" />
        </mxCell>
        <mxCell id="THtEK28CrpyiMlygFGQV-38" style="edgeStyle=orthogonalEdgeStyle;rounded=0;orthogonalLoop=1;jettySize=auto;html=1;fontSize=14;fontColor=#000000;" edge="1" parent="1" source="THtEK28CrpyiMlygFGQV-39" target="THtEK28CrpyiMlygFGQV-44">
          <mxGeometry relative="1" as="geometry" />
        </mxCell>
        <mxCell id="THtEK28CrpyiMlygFGQV-39" value="&lt;font style=&quot;font-size: 14px&quot;&gt;&lt;b&gt;Client&lt;/b&gt;&lt;/font&gt;" style="aspect=fixed;html=1;points=[];align=center;image;fontSize=12;image=img/lib/azure2/ai_machine_learning/Cognitive_Services.svg;fontColor=#000000;" vertex="1" parent="1">
          <mxGeometry x="1171.59" y="390" width="99.17" height="70" as="geometry" />
        </mxCell>
        <mxCell id="THtEK28CrpyiMlygFGQV-40" value="Microservicios" style="ellipse;whiteSpace=wrap;html=1;align=center;newEdgeStyle={&quot;edgeStyle&quot;:&quot;entityRelationEdgeStyle&quot;,&quot;startArrow&quot;:&quot;none&quot;,&quot;endArrow&quot;:&quot;none&quot;,&quot;segment&quot;:10,&quot;curved&quot;:1};treeFolding=1;treeMoving=1;fontSize=14;fillColor=#FFFFFF;fontStyle=1" vertex="1" parent="1">
          <mxGeometry x="1660" y="957" width="110" height="50" as="geometry" />
        </mxCell>
        <mxCell id="THtEK28CrpyiMlygFGQV-41" style="edgeStyle=orthogonalEdgeStyle;rounded=0;orthogonalLoop=1;jettySize=auto;html=1;fontSize=14;fontColor=#000000;" edge="1" parent="1" source="THtEK28CrpyiMlygFGQV-42" target="THtEK28CrpyiMlygFGQV-45">
          <mxGeometry relative="1" as="geometry" />
        </mxCell>
        <mxCell id="THtEK28CrpyiMlygFGQV-79" style="edgeStyle=orthogonalEdgeStyle;rounded=0;orthogonalLoop=1;jettySize=auto;html=1;fontSize=32;" edge="1" parent="1" source="THtEK28CrpyiMlygFGQV-42" target="THtEK28CrpyiMlygFGQV-73">
          <mxGeometry relative="1" as="geometry" />
        </mxCell>
        <mxCell id="THtEK28CrpyiMlygFGQV-93" style="edgeStyle=orthogonalEdgeStyle;rounded=0;orthogonalLoop=1;jettySize=auto;html=1;fontSize=32;strokeColor=#000000;strokeWidth=2;" edge="1" parent="1" source="THtEK28CrpyiMlygFGQV-42" target="THtEK28CrpyiMlygFGQV-89">
          <mxGeometry relative="1" as="geometry">
            <Array as="points">
              <mxPoint x="1234" y="910" />
              <mxPoint x="1150" y="910" />
            </Array>
          </mxGeometry>
        </mxCell>
        <mxCell id="THtEK28CrpyiMlygFGQV-42" value="&lt;font style=&quot;font-size: 14px&quot;&gt;&lt;b&gt;RepositoryGit&lt;/b&gt;&lt;/font&gt;" style="verticalLabelPosition=bottom;html=1;verticalAlign=top;align=center;strokeColor=none;fillColor=#00BEF2;shape=mxgraph.azure.git_repository;labelBackgroundColor=default;" vertex="1" parent="1">
          <mxGeometry x="1209.16" y="970" width="50" height="50" as="geometry" />
        </mxCell>
        <mxCell id="THtEK28CrpyiMlygFGQV-43" value="&lt;font style=&quot;font-size: 14px&quot;&gt;&lt;b&gt;ConfigServer&lt;/b&gt;&lt;/font&gt;" style="aspect=fixed;html=1;points=[];align=center;image;fontSize=12;image=img/lib/azure2/app_services/API_Management_Services.svg;fontColor=#000000;" vertex="1" parent="1">
          <mxGeometry x="1556" y="347" width="122.5" height="113.07" as="geometry" />
        </mxCell>
        <mxCell id="THtEK28CrpyiMlygFGQV-44" value="&lt;b&gt;&lt;font style=&quot;font-size: 14px&quot;&gt;Product&lt;/font&gt;&lt;/b&gt;" style="aspect=fixed;html=1;points=[];align=center;image;fontSize=12;image=img/lib/azure2/ai_machine_learning/Cognitive_Services.svg;fontColor=#000000;" vertex="1" parent="1">
          <mxGeometry x="1151.41" y="220" width="109.17" height="77.06" as="geometry" />
        </mxCell>
        <mxCell id="THtEK28CrpyiMlygFGQV-45" value="&lt;font style=&quot;font-size: 14px&quot;&gt;&lt;b&gt;Movements&lt;/b&gt;&lt;/font&gt;" style="aspect=fixed;html=1;points=[];align=center;image;fontSize=12;image=img/lib/azure2/ai_machine_learning/Cognitive_Services.svg;fontColor=#000000;" vertex="1" parent="1">
          <mxGeometry x="1167.3000000000002" y="694.97" width="107.75" height="76.06" as="geometry" />
        </mxCell>
        <mxCell id="THtEK28CrpyiMlygFGQV-87" style="edgeStyle=orthogonalEdgeStyle;rounded=0;orthogonalLoop=1;jettySize=auto;html=1;fontSize=32;strokeWidth=7;entryX=0;entryY=0.25;entryDx=0;entryDy=0;entryPerimeter=0;strokeColor=#FF893B;" edge="1" parent="1" source="THtEK28CrpyiMlygFGQV-46" target="THtEK28CrpyiMlygFGQV-72">
          <mxGeometry relative="1" as="geometry">
            <Array as="points" />
          </mxGeometry>
        </mxCell>
        <mxCell id="THtEK28CrpyiMlygFGQV-46" value="&lt;b&gt;API GATEWAY&lt;/b&gt;" style="outlineConnect=0;dashed=0;verticalLabelPosition=bottom;verticalAlign=top;align=center;html=1;shape=mxgraph.aws3.internet_gateway;fillColor=#F58534;gradientColor=none;labelBackgroundColor=default;fontSize=20;fontColor=#000000;" vertex="1" parent="1">
          <mxGeometry x="140" y="329.47" width="200" height="170" as="geometry" />
        </mxCell>
        <mxCell id="THtEK28CrpyiMlygFGQV-47" style="edgeStyle=orthogonalEdgeStyle;rounded=0;orthogonalLoop=1;jettySize=auto;html=1;fontSize=15;fontColor=#0000CC;strokeColor=#0000CC;strokeWidth=4;entryX=0.5;entryY=0;entryDx=0;entryDy=0;entryPerimeter=0;" edge="1" parent="1" source="THtEK28CrpyiMlygFGQV-57" target="THtEK28CrpyiMlygFGQV-46">
          <mxGeometry relative="1" as="geometry">
            <Array as="points">
              <mxPoint x="340" y="-347" />
            </Array>
          </mxGeometry>
        </mxCell>
        <mxCell id="THtEK28CrpyiMlygFGQV-48" style="edgeStyle=orthogonalEdgeStyle;rounded=0;orthogonalLoop=1;jettySize=auto;html=1;fontSize=15;fontColor=#0000CC;strokeColor=#0000CC;strokeWidth=4;" edge="1" parent="1" source="THtEK28CrpyiMlygFGQV-57" target="THtEK28CrpyiMlygFGQV-44">
          <mxGeometry relative="1" as="geometry">
            <Array as="points">
              <mxPoint x="900" y="368" />
            </Array>
          </mxGeometry>
        </mxCell>
        <mxCell id="THtEK28CrpyiMlygFGQV-49" style="edgeStyle=orthogonalEdgeStyle;rounded=0;orthogonalLoop=1;jettySize=auto;html=1;fontSize=15;fontColor=#0000CC;strokeColor=#0000CC;strokeWidth=4;" edge="1" parent="1" source="THtEK28CrpyiMlygFGQV-57" target="THtEK28CrpyiMlygFGQV-39">
          <mxGeometry relative="1" as="geometry">
            <Array as="points">
              <mxPoint x="897" y="507" />
            </Array>
          </mxGeometry>
        </mxCell>
        <mxCell id="THtEK28CrpyiMlygFGQV-50" style="edgeStyle=orthogonalEdgeStyle;rounded=0;orthogonalLoop=1;jettySize=auto;html=1;fontSize=15;fontColor=#0000CC;strokeColor=#0000CC;strokeWidth=4;" edge="1" parent="1" source="THtEK28CrpyiMlygFGQV-57" target="THtEK28CrpyiMlygFGQV-14">
          <mxGeometry relative="1" as="geometry">
            <Array as="points">
              <mxPoint x="900" y="-157" />
              <mxPoint x="900" y="107" />
              <mxPoint x="1030" y="107" />
              <mxPoint x="1030" y="653" />
            </Array>
          </mxGeometry>
        </mxCell>
        <mxCell id="THtEK28CrpyiMlygFGQV-51" style="edgeStyle=orthogonalEdgeStyle;rounded=0;orthogonalLoop=1;jettySize=auto;html=1;fontSize=15;fontColor=#0000CC;strokeColor=#0000CC;strokeWidth=4;" edge="1" parent="1" source="THtEK28CrpyiMlygFGQV-57" target="THtEK28CrpyiMlygFGQV-45">
          <mxGeometry relative="1" as="geometry">
            <Array as="points">
              <mxPoint x="900" y="-157" />
              <mxPoint x="900" y="107" />
              <mxPoint x="1030" y="107" />
              <mxPoint x="1030" y="826" />
            </Array>
          </mxGeometry>
        </mxCell>
        <mxCell id="THtEK28CrpyiMlygFGQV-52" style="edgeStyle=orthogonalEdgeStyle;rounded=0;orthogonalLoop=1;jettySize=auto;html=1;fontSize=15;fontColor=#0000CC;strokeColor=#0000CC;strokeWidth=4;entryX=0.627;entryY=-0.014;entryDx=0;entryDy=0;entryPerimeter=0;" edge="1" parent="1" source="THtEK28CrpyiMlygFGQV-57" target="THtEK28CrpyiMlygFGQV-43">
          <mxGeometry relative="1" as="geometry">
            <Array as="points">
              <mxPoint x="897" y="-230" />
              <mxPoint x="1633" y="-230" />
            </Array>
          </mxGeometry>
        </mxCell>
        <mxCell id="THtEK28CrpyiMlygFGQV-53" style="edgeStyle=orthogonalEdgeStyle;rounded=0;orthogonalLoop=1;jettySize=auto;html=1;fontSize=15;fontColor=#0000CC;strokeColor=#0000CC;strokeWidth=4;" edge="1" parent="1" source="THtEK28CrpyiMlygFGQV-57" target="THtEK28CrpyiMlygFGQV-37">
          <mxGeometry relative="1" as="geometry">
            <Array as="points">
              <mxPoint x="897" y="-230" />
              <mxPoint x="1720" y="-230" />
              <mxPoint x="1720" y="594" />
            </Array>
          </mxGeometry>
        </mxCell>
        <mxCell id="THtEK28CrpyiMlygFGQV-54" style="edgeStyle=orthogonalEdgeStyle;rounded=0;orthogonalLoop=1;jettySize=auto;html=1;fontSize=14;fontColor=#000000;strokeColor=#0000CC;strokeWidth=3;startArrow=none;" edge="1" parent="1" source="THtEK28CrpyiMlygFGQV-68" target="THtEK28CrpyiMlygFGQV-61">
          <mxGeometry relative="1" as="geometry">
            <Array as="points">
              <mxPoint x="900" y="-70" />
              <mxPoint x="1205" y="-70" />
            </Array>
          </mxGeometry>
        </mxCell>
        <mxCell id="THtEK28CrpyiMlygFGQV-55" style="edgeStyle=orthogonalEdgeStyle;rounded=0;orthogonalLoop=1;jettySize=auto;html=1;strokeWidth=4;strokeColor=#0000CC;" edge="1" parent="1" source="THtEK28CrpyiMlygFGQV-57" target="THtEK28CrpyiMlygFGQV-68">
          <mxGeometry relative="1" as="geometry">
            <Array as="points">
              <mxPoint x="900" y="107" />
              <mxPoint x="1070" y="107" />
              <mxPoint x="1070" y="79" />
            </Array>
          </mxGeometry>
        </mxCell>
        <mxCell id="THtEK28CrpyiMlygFGQV-56" value="Text" style="edgeLabel;html=1;align=center;verticalAlign=middle;resizable=0;points=[];" vertex="1" connectable="0" parent="THtEK28CrpyiMlygFGQV-55">
          <mxGeometry x="0.1424" y="-2" relative="1" as="geometry">
            <mxPoint y="1" as="offset" />
          </mxGeometry>
        </mxCell>
        <mxCell id="THtEK28CrpyiMlygFGQV-57" value="" style="sketch=0;aspect=fixed;html=1;points=[];align=center;image;fontSize=15;image=img/lib/mscae/Docker.svg;labelBackgroundColor=default;fontColor=#000000;fillColor=#C9F57D;labelBorderColor=default;" vertex="1" parent="1">
          <mxGeometry x="790" y="-540" width="272.48" height="223.43" as="geometry" />
        </mxCell>
        <mxCell id="THtEK28CrpyiMlygFGQV-58" style="edgeStyle=orthogonalEdgeStyle;rounded=0;orthogonalLoop=1;jettySize=auto;html=1;fontSize=14;fontColor=#000000;strokeColor=#0000CC;strokeWidth=4;" edge="1" parent="1" source="THtEK28CrpyiMlygFGQV-59" target="THtEK28CrpyiMlygFGQV-37">
          <mxGeometry relative="1" as="geometry">
            <Array as="points">
              <mxPoint x="1683" y="711" />
              <mxPoint x="1650" y="711" />
            </Array>
          </mxGeometry>
        </mxCell>
        <mxCell id="THtEK28CrpyiMlygFGQV-59" value="&lt;font style=&quot;font-size: 14px&quot; color=&quot;#000000&quot;&gt;&lt;b&gt;CircuitBreaker&lt;/b&gt;&lt;/font&gt;" style="sketch=0;aspect=fixed;html=1;points=[];align=center;image;fontSize=12;image=img/lib/mscae/Cloud_Services_Classic.svg;labelBackgroundColor=default;labelBorderColor=default;fontColor=#0000CC;fillColor=#C9F57D;" vertex="1" parent="1">
          <mxGeometry x="1617.05" y="771.03" width="130.95" height="110" as="geometry" />
        </mxCell>
        <mxCell id="THtEK28CrpyiMlygFGQV-60" style="edgeStyle=orthogonalEdgeStyle;rounded=0;orthogonalLoop=1;jettySize=auto;html=1;entryX=0;entryY=0.5;entryDx=0;entryDy=0;fontSize=14;fontColor=#000000;strokeColor=#FF3A24;strokeWidth=2;" edge="1" parent="1" source="THtEK28CrpyiMlygFGQV-61" target="THtEK28CrpyiMlygFGQV-62">
          <mxGeometry relative="1" as="geometry">
            <Array as="points">
              <mxPoint x="1430" y="160" />
            </Array>
          </mxGeometry>
        </mxCell>
        <mxCell id="THtEK28CrpyiMlygFGQV-61" value="&lt;b&gt;&lt;font style=&quot;font-size: 14px&quot;&gt;Account&lt;/font&gt;&lt;/b&gt;" style="aspect=fixed;html=1;points=[];align=center;image;fontSize=12;image=img/lib/azure2/ai_machine_learning/Cognitive_Services.svg;fontColor=#000000;" vertex="1" parent="1">
          <mxGeometry x="1149.99" y="100.00000000000003" width="109.17" height="77.06" as="geometry" />
        </mxCell>
        <mxCell id="THtEK28CrpyiMlygFGQV-62" value="&lt;font color=&quot;#000000&quot; style=&quot;font-size: 14px&quot;&gt;&lt;b&gt;Account&lt;/b&gt;&lt;/font&gt;" style="image;html=1;image=img/lib/clip_art/computers/Database_128x128.png;fontColor=#FF142C;" vertex="1" parent="1">
          <mxGeometry x="1430" y="80" width="80" height="80" as="geometry" />
        </mxCell>
        <mxCell id="THtEK28CrpyiMlygFGQV-63" style="edgeStyle=orthogonalEdgeStyle;rounded=0;orthogonalLoop=1;jettySize=auto;html=1;entryX=0.5;entryY=1;entryDx=0;entryDy=0;entryPerimeter=0;strokeWidth=5;" edge="1" parent="1" source="THtEK28CrpyiMlygFGQV-66" target="THtEK28CrpyiMlygFGQV-67">
          <mxGeometry relative="1" as="geometry" />
        </mxCell>
        <mxCell id="THtEK28CrpyiMlygFGQV-64" style="edgeStyle=orthogonalEdgeStyle;rounded=0;orthogonalLoop=1;jettySize=auto;html=1;strokeWidth=5;" edge="1" parent="1" source="THtEK28CrpyiMlygFGQV-66" target="THtEK28CrpyiMlygFGQV-3">
          <mxGeometry relative="1" as="geometry" />
        </mxCell>
        <mxCell id="THtEK28CrpyiMlygFGQV-65" style="edgeStyle=orthogonalEdgeStyle;rounded=0;orthogonalLoop=1;jettySize=auto;html=1;strokeWidth=5;" edge="1" parent="1" source="THtEK28CrpyiMlygFGQV-66">
          <mxGeometry relative="1" as="geometry">
            <mxPoint x="1210" y="-230" as="targetPoint" />
            <Array as="points">
              <mxPoint x="2095" y="-380" />
              <mxPoint x="1210" y="-380" />
            </Array>
          </mxGeometry>
        </mxCell>
        <mxCell id="THtEK28CrpyiMlygFGQV-66" value="" style="aspect=fixed;html=1;points=[];align=center;image;fontSize=12;image=img/lib/azure2/databases/Azure_Database_Migration_Services.svg;fillColor=#D4FCFF;" vertex="1" parent="1">
          <mxGeometry x="1960" y="497.54" width="270.34" height="291.46" as="geometry" />
        </mxCell>
        <mxCell id="THtEK28CrpyiMlygFGQV-67" value="" style="verticalLabelPosition=bottom;html=1;verticalAlign=top;align=center;strokeColor=none;fillColor=#00BEF2;shape=mxgraph.azure.azure_subscription;" vertex="1" parent="1">
          <mxGeometry x="1930" y="881.03" width="280" height="194" as="geometry" />
        </mxCell>
        <mxCell id="THtEK28CrpyiMlygFGQV-69" value="&lt;font color=&quot;#000000&quot;&gt;&lt;span style=&quot;font-size: 14px&quot;&gt;&lt;b&gt;Payments&lt;/b&gt;&lt;/span&gt;&lt;/font&gt;" style="image;html=1;image=img/lib/clip_art/computers/Database_128x128.png;fontColor=#FF142C;" vertex="1" parent="1">
          <mxGeometry x="1430" y="-100" width="80" height="80" as="geometry" />
        </mxCell>
        <mxCell id="THtEK28CrpyiMlygFGQV-70" style="edgeStyle=orthogonalEdgeStyle;rounded=0;orthogonalLoop=1;jettySize=auto;html=1;entryX=0;entryY=0.75;entryDx=0;entryDy=0;fontSize=14;fontColor=#000000;strokeColor=#FF3A24;strokeWidth=2;" edge="1" parent="1" source="THtEK28CrpyiMlygFGQV-68" target="THtEK28CrpyiMlygFGQV-69">
          <mxGeometry relative="1" as="geometry">
            <Array as="points">
              <mxPoint x="1413" y="-70" />
              <mxPoint x="1413" y="-40" />
            </Array>
            <mxPoint x="1269.1599999999999" y="230.11111111111086" as="sourcePoint" />
            <mxPoint x="1420" y="232.5300000000002" as="targetPoint" />
          </mxGeometry>
        </mxCell>
        <mxCell id="THtEK28CrpyiMlygFGQV-84" style="edgeStyle=orthogonalEdgeStyle;rounded=0;orthogonalLoop=1;jettySize=auto;html=1;fontSize=32;strokeWidth=7;" edge="1" parent="1" source="THtEK28CrpyiMlygFGQV-71" target="THtEK28CrpyiMlygFGQV-73">
          <mxGeometry relative="1" as="geometry" />
        </mxCell>
        <mxCell id="THtEK28CrpyiMlygFGQV-71" value="&lt;font style=&quot;font-size: 38px&quot;&gt;&lt;b&gt;Redis&lt;/b&gt;&lt;/font&gt;" style="sketch=0;aspect=fixed;html=1;points=[];align=center;image;fontSize=15;image=img/lib/mscae/Cache_Redis_Product.svg;" vertex="1" parent="1">
          <mxGeometry x="560" y="774.25" width="236.31" height="198.5" as="geometry" />
        </mxCell>
        <mxCell id="THtEK28CrpyiMlygFGQV-85" style="edgeStyle=orthogonalEdgeStyle;rounded=0;orthogonalLoop=1;jettySize=auto;html=1;fontSize=32;strokeWidth=7;" edge="1" parent="1" source="THtEK28CrpyiMlygFGQV-72" target="THtEK28CrpyiMlygFGQV-46">
          <mxGeometry relative="1" as="geometry">
            <mxPoint x="420" y="440" as="targetPoint" />
            <Array as="points">
              <mxPoint x="340" y="485" />
              <mxPoint x="340" y="485" />
            </Array>
          </mxGeometry>
        </mxCell>
        <mxCell id="THtEK28CrpyiMlygFGQV-86" style="edgeStyle=orthogonalEdgeStyle;rounded=0;orthogonalLoop=1;jettySize=auto;html=1;entryX=0;entryY=0.606;entryDx=0;entryDy=0;entryPerimeter=0;fontSize=32;strokeWidth=7;" edge="1" parent="1" source="THtEK28CrpyiMlygFGQV-72" target="THtEK28CrpyiMlygFGQV-5">
          <mxGeometry relative="1" as="geometry">
            <Array as="points">
              <mxPoint x="780" y="533" />
              <mxPoint x="780" y="533" />
            </Array>
          </mxGeometry>
        </mxCell>
        <mxCell id="THtEK28CrpyiMlygFGQV-72" value="&lt;font style=&quot;font-size: 32px&quot;&gt;&lt;b&gt;Kafka&lt;/b&gt;&lt;/font&gt;" style="sketch=0;points=[[0,0,0],[0.25,0,0],[0.5,0,0],[0.75,0,0],[1,0,0],[0,1,0],[0.25,1,0],[0.5,1,0],[0.75,1,0],[1,1,0],[0,0.25,0],[0,0.5,0],[0,0.75,0],[1,0.25,0],[1,0.5,0],[1,0.75,0]];outlineConnect=0;fontColor=#232F3E;gradientColor=#945DF2;gradientDirection=north;fillColor=#5A30B5;strokeColor=#ffffff;dashed=0;verticalLabelPosition=bottom;verticalAlign=top;align=center;html=1;fontSize=12;fontStyle=0;aspect=fixed;shape=mxgraph.aws4.resourceIcon;resIcon=mxgraph.aws4.managed_streaming_for_kafka;" vertex="1" parent="1">
          <mxGeometry x="520" y="370" width="230" height="230" as="geometry" />
        </mxCell>
        <mxCell id="THtEK28CrpyiMlygFGQV-73" value="&lt;b&gt;&lt;font style=&quot;font-size: 14px&quot;&gt;Yanki&lt;/font&gt;&lt;/b&gt;" style="aspect=fixed;html=1;points=[];align=center;image;fontSize=12;image=img/lib/azure2/ai_machine_learning/Cognitive_Services.svg;fontColor=#000000;" vertex="1" parent="1">
          <mxGeometry x="979.9999999999999" y="890" width="131.76" height="93" as="geometry" />
        </mxCell>
        <mxCell id="THtEK28CrpyiMlygFGQV-74" value="" style="rounded=0;whiteSpace=wrap;html=1;fillColor=#C9F57D;strokeColor=#666666;fontColor=#333333;" vertex="1" parent="1">
          <mxGeometry x="-220" y="-240" width="310" height="1277" as="geometry" />
        </mxCell>
        <mxCell id="THtEK28CrpyiMlygFGQV-23" value="&lt;font style=&quot;font-size: 20px&quot;&gt;UI&lt;/font&gt;" style="aspect=fixed;perimeter=ellipsePerimeter;html=1;align=center;shadow=0;dashed=0;spacingTop=3;image;image=img/lib/active_directory/home_page.svg;fillColor=#95F5F5;fontSize=14;fontStyle=1" vertex="1" parent="1">
          <mxGeometry x="-190" y="119.99999999999997" width="160" height="144" as="geometry" />
        </mxCell>
        <mxCell id="THtEK28CrpyiMlygFGQV-22" style="edgeStyle=orthogonalEdgeStyle;rounded=0;orthogonalLoop=1;jettySize=auto;html=1;fontSize=20;fontColor=#000000;strokeColor=#99004D;strokeWidth=4;" edge="1" parent="1" source="THtEK28CrpyiMlygFGQV-23" target="THtEK28CrpyiMlygFGQV-46">
          <mxGeometry relative="1" as="geometry">
            <Array as="points">
              <mxPoint x="220" y="390" />
            </Array>
          </mxGeometry>
        </mxCell>
        <mxCell id="THtEK28CrpyiMlygFGQV-68" value="&lt;b&gt;&lt;font style=&quot;font-size: 14px&quot;&gt;Payments&lt;/font&gt;&lt;/b&gt;" style="aspect=fixed;html=1;points=[];align=center;image;fontSize=12;image=img/lib/azure2/ai_machine_learning/Cognitive_Services.svg;fontColor=#000000;" vertex="1" parent="1">
          <mxGeometry x="1149.99" y="-119.99999999999997" width="109.17" height="77.06" as="geometry" />
        </mxCell>
        <mxCell id="THtEK28CrpyiMlygFGQV-75" value="" style="edgeStyle=orthogonalEdgeStyle;rounded=0;orthogonalLoop=1;jettySize=auto;html=1;fontSize=14;fontColor=#000000;strokeColor=#0000CC;strokeWidth=3;endArrow=none;" edge="1" parent="1" source="THtEK28CrpyiMlygFGQV-57" target="THtEK28CrpyiMlygFGQV-68">
          <mxGeometry relative="1" as="geometry">
            <mxPoint x="900" y="-316.56999999999994" as="sourcePoint" />
            <mxPoint x="1205.0909090909086" y="190" as="targetPoint" />
            <Array as="points" />
          </mxGeometry>
        </mxCell>
        <mxCell id="THtEK28CrpyiMlygFGQV-12" value="&lt;font color=&quot;#000000&quot; style=&quot;font-size: 14px&quot;&gt;&lt;b&gt;Asignature&lt;/b&gt;&lt;/font&gt;" style="image;html=1;image=img/lib/clip_art/computers/Database_128x128.png;fontColor=#FF142C;" vertex="1" parent="1">
          <mxGeometry x="1429.9999999999998" y="548" width="80" height="80" as="geometry" />
        </mxCell>
        <mxCell id="THtEK28CrpyiMlygFGQV-81" value="&lt;font color=&quot;#000000&quot; size=&quot;1&quot;&gt;&lt;b style=&quot;font-size: 14px&quot;&gt;Yanki&lt;/b&gt;&lt;/font&gt;" style="image;html=1;image=img/lib/clip_art/computers/Database_128x128.png;fontColor=#FF142C;" vertex="1" parent="1">
          <mxGeometry x="1429.9999999999998" y="920" width="80" height="80" as="geometry" />
        </mxCell>
        <mxCell id="THtEK28CrpyiMlygFGQV-82" value="" style="endArrow=classic;html=1;rounded=0;fontColor=#FF142C;labelBackgroundColor=#FF142C;strokeColor=#FF3A24;strokeWidth=2;" edge="1" parent="1" source="THtEK28CrpyiMlygFGQV-73" target="THtEK28CrpyiMlygFGQV-81">
          <mxGeometry width="50" height="50" relative="1" as="geometry">
            <mxPoint x="1285.0499999999997" y="746.4642821259927" as="sourcePoint" />
            <mxPoint x="1440" y="756.4279111825581" as="targetPoint" />
          </mxGeometry>
        </mxCell>
        <mxCell id="THtEK28CrpyiMlygFGQV-88" style="edgeStyle=orthogonalEdgeStyle;rounded=0;orthogonalLoop=1;jettySize=auto;html=1;fontSize=32;strokeWidth=7;entryX=1;entryY=0;entryDx=0;entryDy=0;entryPerimeter=0;exitX=-0.003;exitY=0.523;exitDx=0;exitDy=0;exitPerimeter=0;strokeColor=#170FFF;" edge="1" parent="1" source="THtEK28CrpyiMlygFGQV-5" target="THtEK28CrpyiMlygFGQV-72">
          <mxGeometry relative="1" as="geometry">
            <mxPoint x="800" y="620" as="sourcePoint" />
            <mxPoint x="1049.58" y="883.5" as="targetPoint" />
          </mxGeometry>
        </mxCell>
        <mxCell id="THtEK28CrpyiMlygFGQV-89" value="&lt;b&gt;&lt;font style=&quot;font-size: 14px&quot;&gt;Debit&lt;/font&gt;&lt;/b&gt;" style="aspect=fixed;html=1;points=[];align=center;image;fontSize=12;image=img/lib/azure2/ai_machine_learning/Cognitive_Services.svg;fontColor=#000000;" vertex="1" parent="1">
          <mxGeometry x="1064.54" y="780" width="102.76" height="72.53" as="geometry" />
        </mxCell>
        <mxCell id="THtEK28CrpyiMlygFGQV-92" style="edgeStyle=orthogonalEdgeStyle;rounded=0;orthogonalLoop=1;jettySize=auto;html=1;fontSize=32;strokeColor=#FF3333;strokeWidth=2;" edge="1" parent="1" source="THtEK28CrpyiMlygFGQV-91" target="THtEK28CrpyiMlygFGQV-89">
          <mxGeometry relative="1" as="geometry" />
        </mxCell>
        <mxCell id="THtEK28CrpyiMlygFGQV-91" value="&lt;font color=&quot;#000000&quot; size=&quot;1&quot;&gt;&lt;b style=&quot;font-size: 14px&quot;&gt;Debit&lt;/b&gt;&lt;/font&gt;" style="image;html=1;image=img/lib/clip_art/computers/Database_128x128.png;fontColor=#FF142C;" vertex="1" parent="1">
          <mxGeometry x="1366.9999999999998" y="810" width="80" height="80" as="geometry" />
        </mxCell>
      </root>
    </mxGraphModel>
  </diagram>
</mxfile>
